<svg xmlns="http://www.w3.org/2000/svg" viewBox="0 0 236.11 213.65"><g id="Layer_2" data-name="Layer 2"><g id="Layer_1-2" data-name="Layer 1"><path d="M219,63.86a34.14,34.14,0,0,1-26,3.43,34.2,34.2,0,0,0-41.86,24l-.06.19c-.13.49-.27,1-.42,1.45a2.25,2.25,0,0,1-.08.24q-.21.64-.45,1.29a4.52,4.52,0,0,1-.18.47c-.11.32-.24.63-.37.94s-.32.74-.49,1.1c-.43.93-.91,1.85-1.43,2.76-.2.34-.4.68-.61,1-.42.66-.85,1.31-1.31,1.94q-.33.47-.69.93l-.72.9-.44.51-.77.87q-.54.59-1.11,1.14c-.44.43-.89.86-1.36,1.26-.81.71-1.65,1.39-2.54,2a.18.18,0,0,1-.07,0c-.45.33-.92.64-1.4,1s-1,.62-1.5.92l-1,.56c-.32.18-.64.34-1,.5a32.58,32.58,0,0,1-3.39,1.45c-1,.36-2,.68-3,1h0c-1.07.28-2.14.51-3.23.69a34.09,34.09,0,0,1-11,0c-1.09-.18-2.16-.41-3.23-.69h0c-.7-.19-1.4-.4-2.09-.63l-.64-.22c-.86-.3-1.72-.65-2.57-1l-1-.49c-.68-.34-1.37-.7-2-1.09a34.34,34.34,0,0,1-2.94-1.9,33.17,33.17,0,0,1-2.68-2.15c-.43-.37-.84-.76-1.25-1.16s-.79-.79-1.17-1.21-.71-.78-1-1.18-.64-.78-.94-1.18c-.17-.21-.32-.42-.48-.64a2.73,2.73,0,0,1-.21-.3c-.2-.26-.38-.53-.56-.8s-.46-.69-.67-1c-.12-.19-.23-.37-.33-.56a7.74,7.74,0,0,1-.43-.73c-.12-.2-.23-.41-.34-.62-.23-.41-.45-.83-.64-1.26s-.44-.93-.64-1.4-.37-.88-.54-1.32c0-.12-.09-.23-.13-.35q-.24-.64-.45-1.29c0-.08,0-.16-.08-.24-.15-.48-.29-1-.42-1.45a1.39,1.39,0,0,0-.06-.19,34.21,34.21,0,0,0-41.86-24,34.22,34.22,0,1,1,24.2-41.92A34.22,34.22,0,0,0,109.07,49.6l.13,0a33.19,33.19,0,0,1,3.29-.71c.73-.12,1.47-.22,2.22-.29l.87-.08a34.08,34.08,0,0,1,5,0l.87.08c.75.07,1.49.17,2.22.29a33.19,33.19,0,0,1,3.29.71l.13,0a34.22,34.22,0,0,0,41.79-24.23A34.22,34.22,0,1,1,219,63.86Z"/><circle cx="118.06" cy="179.42" r="34.22"/></g></g></svg>