<svg xmlns="http://www.w3.org/2000/svg" viewBox="0 0 205.34 233.68"><g id="Layer_2" data-name="Layer 2"><g id="Layer_1-2" data-name="Layer 1"><circle cx="102.67" cy="199.46" r="34.22"/><path d="M205.34,34.22a34.22,34.22,0,0,1-34.23,34.22,34.22,34.22,0,0,0-34.22,34.22v0c0,.54,0,1.09,0,1.63s-.06,1.07-.12,1.6a2.29,2.29,0,0,1,0,.25c-.05.47-.1,1-.17,1.42s-.17,1.08-.28,1.62-.2,1-.33,1.52a1.05,1.05,0,0,1-.05.19c-.11.47-.24.94-.37,1.41l-.06.19c-.13.45-.28.9-.44,1.35,0,.09-.06.18-.1.28-.16.47-.34.94-.53,1.4s-.43,1-.66,1.53-.37.78-.57,1.17c0,0,0,.05,0,.08l-.35.64h0c-.19.36-.4.72-.61,1.08s-.58,1-.9,1.44-.44.66-.67,1a.86.86,0,0,1-.07.1l-.42.57c-.32.44-.66.87-1,1.29s-.66.78-1,1.15l-.08.09c-.36.41-.74.8-1.13,1.19s-1,.94-1.47,1.39c-.31.28-.63.55-1,.82l-.22.18c-.43.35-.86.68-1.3,1s-1,.71-1.5,1c-.33.22-.66.43-1,.63l-.71.42c-.36.21-.71.41-1.08.59-.53.29-1.07.55-1.62.81s-1,.43-1.46.63-1,.4-1.54.58l0,0c-.52.18-1,.35-1.56.5s-1,.28-1.5.41l-.18,0c-.51.12-1,.24-1.52.33s-1.08.2-1.63.28-1.08.14-1.63.19-1.09.09-1.64.12-1.09,0-1.64,0-1.09,0-1.64,0-1.1-.06-1.64-.12-1.09-.11-1.63-.19-1.09-.17-1.63-.28-1-.21-1.52-.33l-.18,0c-.5-.13-1-.26-1.5-.41s-1-.32-1.56-.5l0,0c-.52-.18-1-.37-1.54-.58s-1-.41-1.46-.63-1.09-.52-1.62-.81c-.37-.18-.72-.38-1.08-.59l-.71-.42c-.34-.2-.67-.41-1-.63-.51-.33-1-.68-1.5-1s-.87-.66-1.3-1l-.22-.18c-.33-.27-.65-.54-1-.82-.5-.45-1-.91-1.47-1.39s-.77-.78-1.13-1.19l-.08-.09c-.34-.37-.68-.76-1-1.15s-.69-.85-1-1.29l-.42-.57a.86.86,0,0,1-.07-.1c-.23-.32-.46-.65-.67-1s-.62-.95-.9-1.44-.42-.72-.61-1.08h0l-.35-.64,0-.08c-.2-.39-.39-.77-.57-1.17s-.46-1-.66-1.53-.37-.93-.53-1.4c0-.1-.07-.19-.1-.28-.16-.45-.31-.9-.44-1.35l-.06-.19c-.13-.47-.26-.94-.37-1.41a1.05,1.05,0,0,1,0-.19c-.13-.5-.24-1-.33-1.52s-.2-1.08-.28-1.62-.12-1-.17-1.42a2.29,2.29,0,0,1,0-.25c-.06-.53-.1-1.07-.12-1.6s0-1.09,0-1.63v0A34.22,34.22,0,0,0,34.23,68.44,34.22,34.22,0,1,1,68.45,34.22a34.22,34.22,0,1,0,68.44,0,34.23,34.23,0,0,1,68.45,0Z"/></g></g></svg>